<svg xmlns="http://www.w3.org/2000/svg" xmlns:xlink="http://www.w3.org/1999/xlink" width="500" zoomAndPan="magnify" viewBox="0 0 375 374.999991" height="500" preserveAspectRatio="xMidYMid meet" version="1.0"><defs><g/></defs><g fill="#db4a2b" fill-opacity="1"><g transform="translate(82.259003, 207.803539)"><g><path d="M 18.640625 -0.46875 C 18.148438 -0.46875 16.910156 -0.910156 14.921875 -1.796875 C 12.359375 -2.898438 11.078125 -5.550781 11.078125 -9.75 C 11.078125 -11.78125 11.429688 -14.015625 12.140625 -16.453125 C 12.492188 -17.734375 12.671875 -19.390625 12.671875 -21.421875 C 12.671875 -24.921875 12.140625 -29.519531 11.078125 -35.21875 C 10.234375 -39.507812 9.8125 -43.179688 9.8125 -46.234375 C 9.8125 -49.640625 10.320312 -52.296875 11.34375 -54.203125 C 12.488281 -56.410156 13.0625 -58.597656 13.0625 -60.765625 C 13.0625 -62.140625 12.628906 -64.03125 11.765625 -66.4375 C 10.910156 -68.84375 9.507812 -72.390625 7.5625 -77.078125 C 6.632812 -79.335938 6.171875 -81.351562 6.171875 -83.125 C 6.171875 -87.0625 9.460938 -90.6875 16.046875 -94 C 17.734375 -94.84375 19.789062 -95.265625 22.21875 -95.265625 C 24.695312 -95.265625 27.550781 -94.820312 30.78125 -93.9375 C 33.832031 -93.09375 36.707031 -92.671875 39.40625 -92.671875 C 42.320312 -92.671875 45.019531 -93.160156 47.5 -94.140625 C 50.632812 -95.367188 53.3125 -95.984375 55.53125 -95.984375 C 56.632812 -95.984375 58.035156 -95.675781 59.734375 -95.0625 C 61.441406 -94.445312 62.691406 -93.628906 63.484375 -92.609375 C 63.660156 -92.335938 63.75 -92.09375 63.75 -91.875 C 63.75 -90.769531 61.601562 -90.21875 57.3125 -90.21875 C 55.59375 -90.21875 53.648438 -90.347656 51.484375 -90.609375 L 50.15625 -90.6875 C 46.476562 -90.6875 42.195312 -89.160156 37.3125 -86.109375 C 32.425781 -83.054688 28.5 -79.273438 25.53125 -74.765625 C 22.570312 -70.253906 21.09375 -64.4375 21.09375 -57.3125 C 21.09375 -52.050781 22.664062 -49.421875 25.8125 -49.421875 C 26.78125 -49.421875 28.957031 -50.09375 32.34375 -51.4375 C 35.726562 -52.789062 38.390625 -53.753906 40.328125 -54.328125 C 41.128906 -54.546875 42.082031 -54.65625 43.1875 -54.65625 C 44.6875 -54.65625 46.804688 -54.378906 49.546875 -53.828125 C 52.296875 -53.273438 54.203125 -52.160156 55.265625 -50.484375 C 55.484375 -50.085938 55.59375 -49.710938 55.59375 -49.359375 C 55.59375 -47.941406 54.132812 -46.457031 51.21875 -44.90625 C 48.738281 -43.582031 46.546875 -42.921875 44.640625 -42.921875 C 43.628906 -42.921875 42.679688 -43.117188 41.796875 -43.515625 C 39.710938 -44.441406 37.5 -44.90625 35.15625 -44.90625 C 34.71875 -44.90625 33.65625 -44.835938 31.96875 -44.703125 C 30.289062 -44.578125 28.367188 -42.148438 26.203125 -37.421875 C 24.523438 -33.785156 23.6875 -30.929688 23.6875 -28.859375 C 23.6875 -28.234375 23.773438 -27.679688 23.953125 -27.203125 C 24.210938 -26.316406 24.34375 -24.832031 24.34375 -22.75 C 24.34375 -20.007812 24.097656 -16.1875 23.609375 -11.28125 C 22.910156 -4.070312 21.253906 -0.46875 18.640625 -0.46875 Z M 50.34375 -44.109375 C 49.238281 -43.710938 48.6875 -42.609375 48.6875 -40.796875 C 47.71875 -38.015625 47.164062 -35.757812 47.03125 -34.03125 C 47.65625 -30.625 47.96875 -28.566406 47.96875 -27.859375 C 47.476562 -25.429688 47.234375 -23.90625 47.234375 -23.28125 L 47.234375 -22.15625 C 47.234375 -20.476562 47.960938 -16.34375 49.421875 -9.75 L 49.421875 -9.015625 C 49.066406 -6.585938 48.09375 -5.375 46.5 -5.375 C 44.550781 -5.375 43.578125 -7.078125 43.578125 -10.484375 C 44.554688 -13.660156 45.285156 -17.796875 45.765625 -22.890625 C 45.765625 -23.859375 45.632812 -25.867188 45.375 -28.921875 C 45.632812 -32.460938 45.765625 -34.539062 45.765625 -35.15625 C 44.660156 -40.15625 43.691406 -43.140625 42.859375 -44.109375 Z M 21.15625 1.390625 L 21.15625 21.765625 C 21.332031 22.242188 21.441406 22.710938 21.484375 23.171875 C 21.535156 23.640625 21.648438 24.03125 21.828125 24.34375 C 21.828125 25.09375 21.828125 25.851562 21.828125 26.625 C 21.828125 27.40625 21.867188 28.191406 21.953125 28.984375 C 22.046875 29.609375 22.144531 30.148438 22.25 30.609375 C 22.363281 31.078125 22.46875 31.46875 22.5625 31.78125 L 22.5625 35.484375 C 22.382812 36.242188 22.09375 37.238281 21.6875 38.46875 C 21.507812 39.09375 21.242188 39.492188 20.890625 39.671875 C 20.628906 39.671875 20.5 39.207031 20.5 38.28125 L 20.5 14.125 C 20.320312 13.019531 20.1875 12.15625 20.09375 11.53125 C 20.007812 10.914062 19.859375 10.300781 19.640625 9.6875 C 19.367188 8.488281 19.078125 7.425781 18.765625 6.5 C 18.460938 5.570312 17.9375 4.707031 17.1875 3.90625 L 16.390625 3.90625 L 15.453125 5.578125 C 15.367188 5.703125 15.171875 6.164062 14.859375 6.96875 C 14.773438 8.644531 14.753906 9.789062 14.796875 10.40625 C 14.835938 11.03125 15.054688 12.179688 15.453125 13.859375 L 15.453125 22.6875 C 15.628906 23.476562 15.757812 24.109375 15.84375 24.578125 C 15.9375 25.046875 16.03125 25.5 16.125 25.9375 C 16.125 26.550781 16.125 27.164062 16.125 27.78125 C 16.125 28.40625 16.078125 29.03125 15.984375 29.65625 C 15.804688 30.582031 15.429688 30.976562 14.859375 30.84375 C 14.859375 30.53125 14.835938 30.253906 14.796875 30.015625 C 14.753906 29.773438 14.734375 29.5 14.734375 29.1875 L 14.734375 19.4375 C 14.734375 18.820312 14.664062 18.25 14.53125 17.71875 C 14.394531 17.1875 14.238281 16.519531 14.0625 15.71875 L 14.0625 -1.859375 C 13.882812 -2.960938 13.707031 -3.929688 13.53125 -4.765625 C 13.351562 -5.609375 13.175781 -6.5 13 -7.4375 C 12.78125 -7.601562 12.601562 -7.765625 12.46875 -7.921875 C 12.332031 -8.078125 12.175781 -8.222656 12 -8.359375 L 22.6875 -2.328125 L 22.09375 -1.859375 C 21.5625 -0.617188 21.25 0.460938 21.15625 1.390625 Z M 59.109375 -90.609375 L 59.90625 -90.609375 C 60.164062 -87.609375 60.296875 -85.421875 60.296875 -84.046875 C 60.296875 -83.515625 60.03125 -83.25 59.5 -83.25 L 59.109375 -83.25 C 58.578125 -83.25 58.3125 -83.648438 58.3125 -84.453125 C 58.3125 -85.640625 58.578125 -87.691406 59.109375 -90.609375 Z M 59.109375 -90.609375 "/></g></g></g><g fill="#db4a2b" fill-opacity="1"><g transform="translate(136.785536, 207.803539)"><g><path d="M 43.25 1.1875 C 40.945312 1.1875 38.578125 0.207031 36.140625 -1.75 C 33.710938 -3.71875 28.617188 -5.488281 20.859375 -7.0625 C 13.097656 -8.632812 9.21875 -10.75 9.21875 -13.40625 C 9.21875 -13.488281 9.25 -14.210938 9.3125 -15.578125 C 9.382812 -16.953125 9.421875 -19.394531 9.421875 -22.90625 C 9.421875 -26.425781 10.0625 -31.21875 11.34375 -37.28125 C 11.738281 -39.3125 11.9375 -41.210938 11.9375 -42.984375 C 11.9375 -46.523438 11.117188 -49.554688 9.484375 -52.078125 C 8.285156 -53.890625 7.6875 -55.988281 7.6875 -58.375 C 7.6875 -60.9375 8.394531 -63.878906 9.8125 -67.203125 C 12.113281 -72.597656 13.265625 -76.535156 13.265625 -79.015625 C 13.265625 -79.410156 13.242188 -79.769531 13.203125 -80.09375 C 13.160156 -80.425781 13.140625 -80.769531 13.140625 -81.125 C 13.140625 -83.25 14.242188 -85.96875 16.453125 -89.28125 C 18.660156 -92.601562 22.265625 -94.265625 27.265625 -94.265625 L 29.25 -94.203125 C 30.800781 -94.066406 32.265625 -94 33.640625 -94 C 37.617188 -94 40.957031 -94.53125 43.65625 -95.59375 C 44.9375 -96.082031 46.257812 -96.328125 47.625 -96.328125 C 50.195312 -96.328125 53.347656 -95.285156 57.078125 -93.203125 C 60.816406 -91.128906 63.644531 -88.832031 65.5625 -86.3125 C 67.488281 -83.789062 68.738281 -79.941406 69.3125 -74.765625 C 69.894531 -69.585938 70.957031 -63.945312 72.5 -57.84375 C 73.914062 -52.09375 74.625 -47.363281 74.625 -43.65625 C 74.625 -43.425781 74.601562 -42.296875 74.5625 -40.265625 C 74.519531 -38.234375 74.175781 -35.171875 73.53125 -31.078125 C 72.894531 -26.984375 71.289062 -21.421875 68.71875 -14.390625 C 66.195312 -7.535156 64.007812 -4.109375 62.15625 -4.109375 L 61.6875 -4.109375 C 59.695312 -4.109375 56.03125 -2.9375 50.6875 -0.59375 C 47.894531 0.59375 45.414062 1.1875 43.25 1.1875 Z M 43.3125 -7.953125 C 44.550781 -7.953125 45.3125 -8.347656 45.59375 -9.140625 C 45.882812 -9.941406 49.082031 -12.445312 55.1875 -16.65625 C 59.34375 -19.53125 61.421875 -22.269531 61.421875 -24.875 C 61.421875 -26.113281 60.957031 -27.332031 60.03125 -28.53125 C 57.46875 -31.800781 56.1875 -35.023438 56.1875 -38.203125 C 56.1875 -38.609375 56.296875 -39.816406 56.515625 -41.828125 C 56.734375 -43.835938 58.0625 -47.875 60.5 -53.9375 C 61.5625 -56.582031 62.09375 -59.101562 62.09375 -61.5 C 62.09375 -64.5 60.875 -67.769531 58.4375 -71.3125 C 56.007812 -74.851562 54.382812 -77.71875 53.5625 -79.90625 C 52.75 -82.09375 50.441406 -84.179688 46.640625 -86.171875 C 44.515625 -87.273438 42.367188 -87.828125 40.203125 -87.828125 C 38.523438 -87.828125 36.300781 -87.265625 33.53125 -86.140625 C 30.769531 -85.015625 28.109375 -83.367188 25.546875 -81.203125 C 23.554688 -79.515625 22.5625 -77.742188 22.5625 -75.890625 C 22.5625 -75.359375 22.644531 -74.804688 22.8125 -74.234375 C 23.082031 -73.347656 23.21875 -72.332031 23.21875 -71.1875 C 23.21875 -68.96875 22.617188 -65.78125 21.421875 -61.625 C 20.234375 -57.46875 19.238281 -51.519531 18.4375 -43.78125 C 18.132812 -40.945312 17.984375 -38.25 17.984375 -35.6875 C 17.984375 -31.269531 18.578125 -26.757812 19.765625 -22.15625 C 20.960938 -17.550781 22.289062 -14.660156 23.75 -13.484375 C 25.207031 -12.316406 29.078125 -10.941406 35.359375 -9.359375 C 38.984375 -8.421875 41.632812 -7.953125 43.3125 -7.953125 Z M 43.515625 -90.75 L 45.109375 -89.03125 L 46.03125 -86.4375 C 45.8125 -86.4375 45.703125 -86.128906 45.703125 -85.515625 L 45.703125 -84.984375 C 45.703125 -84.140625 45.546875 -83.148438 45.234375 -82.015625 C 44.929688 -80.890625 45.085938 -77.832031 45.703125 -72.84375 L 45.703125 -65.9375 C 45.398438 -62.53125 45.25 -60.363281 45.25 -59.4375 L 45.25 -58.90625 C 45.25 -58.195312 45.359375 -56.867188 45.578125 -54.921875 C 45.578125 -53.859375 45.726562 -52.800781 46.03125 -51.75 C 46.476562 -50.15625 46.859375 -48.648438 47.171875 -47.234375 C 47.472656 -45.640625 47.625 -44.644531 47.625 -44.25 C 47.625 -43.582031 47.582031 -43.140625 47.5 -42.921875 C 46.96875 -41.992188 46.171875 -41.53125 45.109375 -41.53125 C 44.222656 -41.53125 43.515625 -41.835938 42.984375 -42.453125 C 42.585938 -42.984375 42.390625 -43.625 42.390625 -44.375 L 42.390625 -44.71875 C 42.390625 -45.113281 42.695312 -46.0625 43.3125 -47.5625 C 44.070312 -50.125 44.453125 -52.644531 44.453125 -55.125 C 44.671875 -57.332031 44.78125 -58.859375 44.78125 -59.703125 L 44.78125 -62.625 C 44.78125 -63.769531 44.515625 -65.625 43.984375 -68.1875 C 43.671875 -70.3125 43.515625 -72.394531 43.515625 -74.4375 L 43.515625 -74.765625 L 43.78125 -78.140625 L 43.78125 -79.875 L 43.984375 -84.1875 L 43.984375 -84.71875 C 43.984375 -85.550781 43.828125 -87.5625 43.515625 -90.75 Z M 21.359375 -7.828125 C 21.097656 -5.171875 20.300781 -2.007812 18.96875 1.65625 C 18.96875 11.738281 20.40625 22.488281 23.28125 33.90625 C 21.738281 36.550781 20.566406 37.941406 19.765625 38.078125 C 19.765625 37.941406 19.632812 37.875 19.375 37.875 L 19.375 39.609375 L 17.375 39.609375 C 16.84375 39.609375 16.203125 39.03125 15.453125 37.875 C 15.453125 37.34375 15.695312 37.078125 16.1875 37.078125 C 15.4375 36.015625 15.0625 34.957031 15.0625 33.90625 C 16.875 19.882812 17.378906 7.566406 16.578125 -3.046875 C 16.578125 -5.171875 16.335938 -6.875 15.859375 -8.15625 Z M 20.96875 30.78125 C 20.96875 32.863281 20.566406 34.300781 19.765625 35.09375 L 19.765625 35.484375 L 20.5625 35.484375 C 21.09375 35.484375 21.359375 34.957031 21.359375 33.90625 L 21.359375 30.78125 Z M 66.140625 3.578125 C 66.140625 4.285156 65.828125 5.035156 65.203125 5.828125 C 64.585938 6.628906 63.972656 7.078125 63.359375 7.171875 C 62.472656 7.253906 62.03125 6.054688 62.03125 3.578125 C 62.03125 3.046875 62.515625 0.988281 63.484375 -2.59375 C 63.929688 -1.257812 64.484375 0.0976562 65.140625 1.484375 C 65.804688 2.878906 66.140625 3.578125 66.140625 3.578125 Z M 66.140625 3.578125 "/></g></g></g><g fill="#db4a2b" fill-opacity="1"><g transform="translate(202.72158, 207.803539)"><g><path d="M 65.8125 1.65625 L 64.609375 1.65625 C 58.203125 1.65625 54.707031 -0.351562 54.125 -4.375 C 53.644531 -7.695312 53.40625 -11.546875 53.40625 -15.921875 L 53.46875 -20.296875 C 53.46875 -23.878906 52.160156 -25.671875 49.546875 -25.671875 C 48.046875 -25.671875 46.144531 -25.097656 43.84375 -23.953125 C 39.644531 -21.910156 36.15625 -20.890625 33.375 -20.890625 C 31.726562 -20.890625 30.332031 -21.222656 29.1875 -21.890625 C 28.257812 -22.421875 27.484375 -22.6875 26.859375 -22.6875 C 25.316406 -22.6875 24.546875 -21.179688 24.546875 -18.171875 L 24.546875 -17.453125 C 24.546875 -12.984375 23.660156 -9.066406 21.890625 -5.703125 C 20.828125 -3.671875 19.015625 -2.65625 16.453125 -2.65625 C 14.640625 -2.65625 12.472656 -3.160156 9.953125 -4.171875 C 4.734375 -6.210938 2.125 -8.09375 2.125 -9.8125 C 2.125 -10.125 2.441406 -10.851562 3.078125 -12 C 3.722656 -13.15625 5.179688 -16.285156 7.453125 -21.390625 C 9.734375 -26.503906 11.015625 -29.722656 11.296875 -31.046875 C 11.585938 -32.367188 12.609375 -34.054688 14.359375 -36.109375 C 16.109375 -38.171875 17.84375 -42.539062 19.5625 -49.21875 C 21.070312 -54.96875 21.828125 -59.238281 21.828125 -62.03125 C 21.828125 -62.46875 21.800781 -62.882812 21.75 -63.28125 C 21.707031 -63.6875 21.6875 -64.109375 21.6875 -64.546875 C 21.6875 -66.972656 22.265625 -69.757812 23.421875 -72.90625 C 24.703125 -76.394531 25.34375 -80.242188 25.34375 -84.453125 L 25.34375 -85.375 C 25.34375 -88.78125 27.6875 -90.484375 32.375 -90.484375 C 33.738281 -90.484375 35.332031 -90.328125 37.15625 -90.015625 L 47.703125 -88.234375 C 47.347656 -88.234375 47.171875 -87.722656 47.171875 -86.703125 C 47.171875 -85.421875 47.566406 -82.675781 48.359375 -78.46875 C 49.148438 -74.269531 50.394531 -69.460938 52.09375 -64.046875 C 53.800781 -58.628906 55.375 -53.71875 56.8125 -49.3125 C 58.25 -44.914062 58.976562 -42.617188 59 -42.421875 C 59.03125 -42.222656 60.8125 -39.316406 64.34375 -33.703125 C 66.820312 -29.722656 68.0625 -26.5625 68.0625 -24.21875 C 68.0625 -23.238281 67.863281 -22.414062 67.46875 -21.75 C 67.070312 -21.09375 66.875 -20.273438 66.875 -19.296875 C 66.875 -16.773438 68.222656 -13.171875 70.921875 -8.484375 C 72.203125 -6.234375 72.84375 -4.359375 72.84375 -2.859375 C 72.84375 0.015625 70.5 1.519531 65.8125 1.65625 Z M 33.96875 -30.78125 C 34.144531 -30.78125 35.691406 -30.84375 38.609375 -30.96875 C 41.523438 -31.101562 43.671875 -34.535156 45.046875 -41.265625 C 45.441406 -43.160156 45.640625 -44.992188 45.640625 -46.765625 C 45.640625 -51.191406 44.445312 -55.109375 42.0625 -58.515625 C 40.15625 -61.253906 38.40625 -62.625 36.8125 -62.625 C 33.28125 -62.625 30.363281 -55.988281 28.0625 -42.71875 C 27.789062 -41.082031 27.65625 -39.625 27.65625 -38.34375 C 27.65625 -33.300781 29.757812 -30.78125 33.96875 -30.78125 Z M 65.671875 1.453125 L 71.96875 -3.25 C 71.09375 2.144531 70.65625 5.59375 70.65625 7.09375 L 69.984375 23.546875 C 69.984375 28.804688 70.515625 33.316406 71.578125 37.078125 L 71.578125 37.75 C 72.460938 40 72.085938 41.941406 70.453125 43.578125 L 68.390625 43.578125 C 66.140625 42.828125 65.015625 41.035156 65.015625 38.203125 L 65.015625 37.28125 C 67.265625 29.320312 68.390625 24.742188 68.390625 23.546875 L 68.390625 20.4375 C 68.390625 13.050781 67.484375 6.722656 65.671875 1.453125 Z M 69.328125 41.328125 L 66.140625 36.625 L 66.140625 38.875 C 66.140625 40.375 67.203125 41.566406 69.328125 42.453125 Z M 15.71875 -8.6875 L 22.421875 -8.6875 C 20.742188 -4.21875 20.101562 0.300781 20.5 4.875 C 20.894531 9.445312 21.09375 12.046875 21.09375 12.671875 C 21.09375 13.421875 21.644531 15.390625 22.75 18.578125 L 22.75 19.765625 C 22.664062 21.535156 21.71875 22.421875 19.90625 22.421875 C 17.738281 21.890625 16.65625 20.875 16.65625 19.375 L 18.96875 13.671875 L 18.96875 12.671875 C 18.84375 0.597656 18.023438 -6.320312 16.515625 -8.09375 C 15.984375 -8.09375 15.71875 -8.160156 15.71875 -8.296875 L 15.515625 -8.296875 Z M 36.09375 -63.8125 L 36.09375 -63.6875 C 36.925781 -59 37.34375 -56.34375 37.34375 -55.71875 L 37.34375 -54.53125 C 36.769531 -52.625 36.21875 -51.671875 35.6875 -51.671875 L 34.09375 -51.671875 C 33.125 -52.773438 32.640625 -53.726562 32.640625 -54.53125 C 33.878906 -57.894531 34.5 -60.503906 34.5 -62.359375 C 33.613281 -62.890625 34.144531 -63.375 36.09375 -63.8125 Z M 33.96875 -55.453125 L 33.5625 -55.453125 L 33.5625 -54.53125 C 33.5625 -53.425781 34.003906 -52.738281 34.890625 -52.46875 L 35.296875 -52.609375 C 34.410156 -53.890625 33.96875 -54.835938 33.96875 -55.453125 Z M 33.96875 -55.453125 "/></g></g></g><g fill="#db4a2b" fill-opacity="1"><g transform="translate(247.381013, 207.803539)"><g><path d="M 37.609375 4.90625 C 36.773438 4.90625 35.828125 4.273438 34.765625 3.015625 C 33.703125 1.753906 33.0625 1.125 32.84375 1.125 C 32.75 1.125 32.703125 1.191406 32.703125 1.328125 C 32.703125 1.460938 32.679688 1.53125 32.640625 1.53125 C 32.597656 1.53125 32.53125 1.019531 32.4375 0 L 32.4375 -0.265625 C 32.4375 -1.640625 33.273438 -3.597656 34.953125 -6.140625 C 36.640625 -8.679688 37.859375 -10.703125 38.609375 -12.203125 C 39.273438 -13.484375 39.628906 -14.125 39.671875 -14.125 L 39.671875 -14 C 39.671875 -13.6875 40.617188 -13.53125 42.515625 -13.53125 C 43.492188 -13.53125 43.984375 -13.421875 43.984375 -13.203125 L 43.921875 -13.203125 C 43.921875 -13.203125 43.921875 -13.179688 43.921875 -13.140625 C 43.921875 -12.960938 44.382812 -12.253906 45.3125 -11.015625 C 45.882812 -10.210938 46.171875 -8.992188 46.171875 -7.359375 C 46.171875 -6.035156 45.992188 -4.46875 45.640625 -2.65625 C 44.972656 0.664062 44.488281 2.328125 44.1875 2.328125 C 44.09375 2.328125 44.023438 2.191406 43.984375 1.921875 C 43.847656 1.347656 43.582031 1.0625 43.1875 1.0625 C 42.832031 1.0625 42.191406 1.523438 41.265625 2.453125 C 39.628906 4.085938 38.410156 4.90625 37.609375 4.90625 Z M 41.125 -24.9375 C 40.414062 -24.9375 39.203125 -25.269531 37.484375 -25.9375 C 34.742188 -26.957031 33.375 -27.578125 33.375 -27.796875 C 33.375 -27.835938 33.394531 -27.859375 33.4375 -27.859375 C 33.75 -27.953125 33.90625 -28.128906 33.90625 -28.390625 C 33.90625 -28.484375 33.835938 -28.671875 33.703125 -28.953125 C 33.566406 -29.242188 33.273438 -29.597656 32.828125 -30.015625 C 32.390625 -30.429688 32.171875 -30.773438 32.171875 -31.046875 C 32.171875 -31.222656 32.21875 -31.3125 32.3125 -31.3125 C 32.351562 -31.3125 32.414062 -31.242188 32.5 -31.109375 L 32.640625 -30.984375 C 32.859375 -30.984375 33.085938 -32.140625 33.328125 -34.453125 C 33.578125 -36.773438 33.765625 -38.410156 33.890625 -39.359375 C 34.023438 -40.316406 34.210938 -41.300781 34.453125 -42.3125 C 34.703125 -43.332031 35.335938 -45.21875 36.359375 -47.96875 C 36.835938 -49.375 37.078125 -50.675781 37.078125 -51.875 C 37.078125 -53.070312 36.859375 -54.15625 36.421875 -55.125 C 35.796875 -56.40625 35.484375 -57.289062 35.484375 -57.78125 C 35.484375 -58.09375 35.570312 -58.257812 35.75 -58.28125 C 35.925781 -58.300781 36.015625 -58.421875 36.015625 -58.640625 C 36.015625 -59.265625 35.394531 -60.703125 34.15625 -62.953125 C 33.101562 -64.898438 32.578125 -66.179688 32.578125 -66.796875 C 32.578125 -67.023438 32.664062 -67.140625 32.84375 -67.140625 L 33.171875 -67.140625 C 33.703125 -67.140625 33.96875 -68.085938 33.96875 -69.984375 C 33.96875 -72.640625 33.546875 -77.285156 32.703125 -83.921875 C 32.566406 -85.066406 32.5 -86.101562 32.5 -87.03125 C 32.5 -88.582031 32.6875 -89.753906 33.0625 -90.546875 C 33.445312 -91.347656 33.640625 -91.898438 33.640625 -92.203125 C 33.640625 -92.429688 33.523438 -92.546875 33.296875 -92.546875 L 33.171875 -92.546875 C 33.078125 -92.546875 33.03125 -92.566406 33.03125 -92.609375 C 33.03125 -92.742188 34.003906 -93.375 35.953125 -94.5 C 37.898438 -95.625 38.875 -96.34375 38.875 -96.65625 C 38.875 -96.789062 38.695312 -96.859375 38.34375 -96.859375 L 38.28125 -96.859375 C 38.28125 -96.804688 38.410156 -96.710938 38.671875 -96.578125 C 38.941406 -96.453125 39.164062 -96.390625 39.34375 -96.390625 L 39.46875 -96.390625 C 39.738281 -96.390625 40.890625 -95.660156 42.921875 -94.203125 C 44.378906 -93.140625 45.195312 -92.609375 45.375 -92.609375 L 45.4375 -92.671875 C 45.4375 -92.710938 45.367188 -92.8125 45.234375 -92.96875 C 45.109375 -93.125 45.023438 -93.203125 44.984375 -93.203125 C 44.890625 -93.203125 44.84375 -93.09375 44.84375 -92.875 C 44.84375 -92.382812 45.085938 -91.234375 45.578125 -89.421875 C 46.148438 -87.210938 46.4375 -85.507812 46.4375 -84.3125 C 46.4375 -83.78125 46.320312 -83.148438 46.09375 -82.421875 C 45.875 -81.691406 45.53125 -79.328125 45.0625 -75.328125 C 44.601562 -71.328125 44.296875 -68.582031 44.140625 -67.09375 C 43.992188 -65.613281 43.832031 -64.65625 43.65625 -64.21875 C 43.601562 -64.082031 43.578125 -63.859375 43.578125 -63.546875 C 43.578125 -62.710938 43.78125 -61.234375 44.1875 -59.109375 C 44.664062 -56.453125 44.992188 -55.125 45.171875 -55.125 L 45.25 -55.1875 C 45.414062 -55.1875 45.832031 -52.425781 46.5 -46.90625 C 46.8125 -44.207031 46.96875 -41.773438 46.96875 -39.609375 C 46.96875 -37.035156 46.742188 -34.84375 46.296875 -33.03125 C 45.640625 -30.382812 45.15625 -29.0625 44.84375 -29.0625 C 44.757812 -29.0625 44.671875 -29.171875 44.578125 -29.390625 C 44.492188 -29.609375 44.363281 -29.71875 44.1875 -29.71875 C 43.832031 -29.71875 43.410156 -29.363281 42.921875 -28.65625 C 42.171875 -27.6875 41.796875 -26.800781 41.796875 -26 L 41.859375 -25.40625 C 41.859375 -25.09375 41.613281 -24.9375 41.125 -24.9375 Z M 41.125 -24.9375 "/></g></g></g><g fill="#db4a2b" fill-opacity="1"><g transform="translate(173.181958, 241.968365)"><g><path d="M 5.75 -2.796875 C 5.75 -2.398438 5.679688 -2.023438 5.546875 -1.671875 C 5.421875 -1.328125 5.234375 -1.023438 4.984375 -0.765625 C 4.742188 -0.503906 4.457031 -0.296875 4.125 -0.140625 C 3.789062 0.00390625 3.425781 0.078125 3.03125 0.078125 C 2.632812 0.078125 2.269531 0.00390625 1.9375 -0.140625 C 1.613281 -0.296875 1.328125 -0.503906 1.078125 -0.765625 C 0.835938 -1.023438 0.648438 -1.328125 0.515625 -1.671875 C 0.378906 -2.023438 0.3125 -2.398438 0.3125 -2.796875 C 0.3125 -3.203125 0.378906 -3.578125 0.515625 -3.921875 C 0.648438 -4.265625 0.835938 -4.566406 1.078125 -4.828125 C 1.328125 -5.097656 1.613281 -5.304688 1.9375 -5.453125 C 2.269531 -5.609375 2.632812 -5.6875 3.03125 -5.6875 C 3.425781 -5.6875 3.789062 -5.609375 4.125 -5.453125 C 4.457031 -5.304688 4.742188 -5.097656 4.984375 -4.828125 C 5.234375 -4.566406 5.421875 -4.265625 5.546875 -3.921875 C 5.679688 -3.578125 5.75 -3.203125 5.75 -2.796875 Z M 4.71875 -2.796875 C 4.71875 -3.160156 4.644531 -3.484375 4.5 -3.765625 C 4.351562 -4.054688 4.15625 -4.285156 3.90625 -4.453125 C 3.65625 -4.628906 3.363281 -4.71875 3.03125 -4.71875 C 2.695312 -4.71875 2.40625 -4.628906 2.15625 -4.453125 C 1.90625 -4.285156 1.707031 -4.054688 1.5625 -3.765625 C 1.425781 -3.484375 1.359375 -3.160156 1.359375 -2.796875 C 1.359375 -2.441406 1.425781 -2.117188 1.5625 -1.828125 C 1.707031 -1.535156 1.90625 -1.300781 2.15625 -1.125 C 2.40625 -0.957031 2.695312 -0.875 3.03125 -0.875 C 3.363281 -0.875 3.65625 -0.957031 3.90625 -1.125 C 4.15625 -1.300781 4.351562 -1.535156 4.5 -1.828125 C 4.644531 -2.117188 4.71875 -2.441406 4.71875 -2.796875 Z M 4.71875 -2.796875 "/></g></g></g><g fill="#db4a2b" fill-opacity="1"><g transform="translate(179.038072, 241.968365)"><g><path d="M 4.84375 -5.59375 C 4.976562 -5.59375 5.082031 -5.550781 5.15625 -5.46875 C 5.238281 -5.382812 5.28125 -5.28125 5.28125 -5.15625 L 5.28125 -0.484375 C 5.28125 -0.347656 5.234375 -0.234375 5.140625 -0.140625 C 5.046875 -0.046875 4.929688 0 4.796875 0 C 4.722656 0 4.648438 -0.0078125 4.578125 -0.03125 C 4.503906 -0.0625 4.453125 -0.0976562 4.421875 -0.140625 L 1.265625 -4.125 L 1.484375 -4.25 L 1.484375 -0.453125 C 1.484375 -0.316406 1.441406 -0.207031 1.359375 -0.125 C 1.273438 -0.0390625 1.164062 0 1.03125 0 C 0.90625 0 0.800781 -0.0390625 0.71875 -0.125 C 0.632812 -0.207031 0.59375 -0.316406 0.59375 -0.453125 L 0.59375 -5.109375 C 0.59375 -5.242188 0.640625 -5.359375 0.734375 -5.453125 C 0.828125 -5.546875 0.945312 -5.59375 1.09375 -5.59375 C 1.164062 -5.59375 1.238281 -5.578125 1.3125 -5.546875 C 1.394531 -5.523438 1.457031 -5.484375 1.5 -5.421875 L 4.546875 -1.53125 L 4.40625 -1.4375 L 4.40625 -5.15625 C 4.40625 -5.28125 4.441406 -5.382812 4.515625 -5.46875 C 4.597656 -5.550781 4.707031 -5.59375 4.84375 -5.59375 Z M 4.84375 -5.59375 "/></g></g></g><g fill="#db4a2b" fill-opacity="1"><g transform="translate(184.702188, 241.968365)"><g><path d="M 3 -5.59375 C 3.382812 -5.59375 3.722656 -5.519531 4.015625 -5.375 C 4.316406 -5.238281 4.570312 -5.039062 4.78125 -4.78125 C 4.988281 -4.519531 5.144531 -4.21875 5.25 -3.875 C 5.351562 -3.539062 5.40625 -3.179688 5.40625 -2.796875 C 5.40625 -2.285156 5.3125 -1.816406 5.125 -1.390625 C 4.9375 -0.960938 4.664062 -0.625 4.3125 -0.375 C 3.957031 -0.125 3.519531 0 3 0 L 1.09375 0 C 0.945312 0 0.828125 -0.046875 0.734375 -0.140625 C 0.640625 -0.234375 0.59375 -0.347656 0.59375 -0.484375 L 0.59375 -5.109375 C 0.59375 -5.242188 0.640625 -5.359375 0.734375 -5.453125 C 0.828125 -5.546875 0.945312 -5.59375 1.09375 -5.59375 Z M 2.921875 -0.921875 C 3.253906 -0.921875 3.523438 -1.003906 3.734375 -1.171875 C 3.953125 -1.347656 4.109375 -1.578125 4.203125 -1.859375 C 4.304688 -2.148438 4.359375 -2.460938 4.359375 -2.796875 C 4.359375 -3.046875 4.328125 -3.285156 4.265625 -3.515625 C 4.210938 -3.742188 4.128906 -3.941406 4.015625 -4.109375 C 3.898438 -4.285156 3.75 -4.425781 3.5625 -4.53125 C 3.382812 -4.632812 3.171875 -4.6875 2.921875 -4.6875 L 1.515625 -4.6875 L 1.59375 -4.75 L 1.59375 -0.828125 L 1.546875 -0.921875 Z M 2.921875 -0.921875 "/></g></g></g><g fill="#db4a2b" fill-opacity="1"><g transform="translate(190.206299, 241.968365)"><g><path d="M 1.109375 -5.59375 C 1.234375 -5.59375 1.34375 -5.546875 1.4375 -5.453125 C 1.539062 -5.359375 1.59375 -5.242188 1.59375 -5.109375 L 1.59375 -0.484375 C 1.59375 -0.347656 1.539062 -0.234375 1.4375 -0.140625 C 1.34375 -0.046875 1.226562 0 1.09375 0 C 0.945312 0 0.828125 -0.046875 0.734375 -0.140625 C 0.640625 -0.234375 0.59375 -0.347656 0.59375 -0.484375 L 0.59375 -5.109375 C 0.59375 -5.242188 0.640625 -5.359375 0.734375 -5.453125 C 0.835938 -5.546875 0.960938 -5.59375 1.109375 -5.59375 Z M 4.65625 -5.59375 C 4.800781 -5.59375 4.921875 -5.546875 5.015625 -5.453125 C 5.109375 -5.359375 5.15625 -5.242188 5.15625 -5.109375 L 5.15625 -0.484375 C 5.15625 -0.347656 5.109375 -0.234375 5.015625 -0.140625 C 4.921875 -0.046875 4.796875 0 4.640625 0 C 4.515625 0 4.398438 -0.046875 4.296875 -0.140625 C 4.203125 -0.234375 4.15625 -0.347656 4.15625 -0.484375 L 4.15625 -5.109375 C 4.15625 -5.242188 4.203125 -5.359375 4.296875 -5.453125 C 4.398438 -5.546875 4.519531 -5.59375 4.65625 -5.59375 Z M 1.09375 -3.265625 L 4.65625 -3.265625 L 4.65625 -2.359375 L 1.09375 -2.359375 Z M 1.09375 -3.265625 "/></g></g></g><g fill="#db4a2b" fill-opacity="1"><g transform="translate(195.742411, 241.968365)"><g><path d="M 5.75 -2.796875 C 5.75 -2.398438 5.679688 -2.023438 5.546875 -1.671875 C 5.421875 -1.328125 5.234375 -1.023438 4.984375 -0.765625 C 4.742188 -0.503906 4.457031 -0.296875 4.125 -0.140625 C 3.789062 0.00390625 3.425781 0.078125 3.03125 0.078125 C 2.632812 0.078125 2.269531 0.00390625 1.9375 -0.140625 C 1.613281 -0.296875 1.328125 -0.503906 1.078125 -0.765625 C 0.835938 -1.023438 0.648438 -1.328125 0.515625 -1.671875 C 0.378906 -2.023438 0.3125 -2.398438 0.3125 -2.796875 C 0.3125 -3.203125 0.378906 -3.578125 0.515625 -3.921875 C 0.648438 -4.265625 0.835938 -4.566406 1.078125 -4.828125 C 1.328125 -5.097656 1.613281 -5.304688 1.9375 -5.453125 C 2.269531 -5.609375 2.632812 -5.6875 3.03125 -5.6875 C 3.425781 -5.6875 3.789062 -5.609375 4.125 -5.453125 C 4.457031 -5.304688 4.742188 -5.097656 4.984375 -4.828125 C 5.234375 -4.566406 5.421875 -4.265625 5.546875 -3.921875 C 5.679688 -3.578125 5.75 -3.203125 5.75 -2.796875 Z M 4.71875 -2.796875 C 4.71875 -3.160156 4.644531 -3.484375 4.5 -3.765625 C 4.351562 -4.054688 4.15625 -4.285156 3.90625 -4.453125 C 3.65625 -4.628906 3.363281 -4.71875 3.03125 -4.71875 C 2.695312 -4.71875 2.40625 -4.628906 2.15625 -4.453125 C 1.90625 -4.285156 1.707031 -4.054688 1.5625 -3.765625 C 1.425781 -3.484375 1.359375 -3.160156 1.359375 -2.796875 C 1.359375 -2.441406 1.425781 -2.117188 1.5625 -1.828125 C 1.707031 -1.535156 1.90625 -1.300781 2.15625 -1.125 C 2.40625 -0.957031 2.695312 -0.875 3.03125 -0.875 C 3.363281 -0.875 3.65625 -0.957031 3.90625 -1.125 C 4.15625 -1.300781 4.351562 -1.535156 4.5 -1.828125 C 4.644531 -2.117188 4.71875 -2.441406 4.71875 -2.796875 Z M 4.71875 -2.796875 "/></g></g></g></svg>